<svg aria-hidden="true" style="position: absolute; width: 0; height: 0; overflow: hidden;" version="1.1" xmlns="http://www.w3.org/2000/svg" xmlns:xlink="http://www.w3.org/1999/xlink">
<defs>
<symbol id="icon-chevron-thin-down" viewBox="0 0 20 20">
<path d="M17.418 6.109c0.272-0.268 0.709-0.268 0.979 0s0.271 0.701 0 0.969l-7.908 7.83c-0.27 0.268-0.707 0.268-0.979 0l-7.908-7.83c-0.27-0.268-0.27-0.701 0-0.969s0.709-0.268 0.979 0l7.419 7.141 7.418-7.141z"></path>
</symbol>
<symbol id="icon-chevron-thin-left" viewBox="0 0 20 20">
<path d="M13.891 17.418c0.268 0.272 0.268 0.709 0 0.979s-0.701 0.271-0.969 0l-7.83-7.908c-0.268-0.27-0.268-0.707 0-0.979l7.83-7.908c0.268-0.27 0.701-0.27 0.969 0s0.268 0.709 0 0.979l-7.141 7.419 7.141 7.418z"></path>
</symbol>
<symbol id="icon-chevron-thin-right" viewBox="0 0 20 20">
<path d="M13.25 10l-7.141-7.42c-0.268-0.27-0.268-0.707 0-0.979 0.268-0.27 0.701-0.27 0.969 0l7.83 7.908c0.268 0.271 0.268 0.709 0 0.979l-7.83 7.908c-0.268 0.271-0.701 0.27-0.969 0s-0.268-0.707 0-0.979l7.141-7.417z"></path>
</symbol>
<symbol id="icon-calendar" viewBox="0 0 20 20">
<path d="M17 3h-1v2h-3v-2h-6v2h-3v-2h-1c-1.101 0-2 0.9-2 2v12c0 1.1 0.899 2 2 2h14c1.1 0 2-0.9 2-2v-12c0-1.1-0.9-2-2-2zM17 17h-14v-8h14v8zM6.5 1h-2v3.5h2v-3.5zM15.5 1h-2v3.5h2v-3.5z"></path>
</symbol>
<symbol id="icon-globe" viewBox="0 0 20 20">
<path d="M10 0.4c-5.295 0-9.601 4.307-9.601 9.6s4.306 9.6 9.601 9.6c5.293 0 9.6-4.307 9.6-9.6s-4.307-9.6-9.6-9.6zM18.188 10c0 1.873-0.636 3.6-1.696 4.98-0.3-0.234-0.619-0.867-0.319-1.523 0.303-0.66 0.382-2.188 0.312-2.783-0.066-0.594-0.375-2.025-1.214-2.039-0.838-0.012-1.413-0.289-1.911-1.283-1.033-2.068 1.939-2.465 0.906-3.609-0.289-0.322-1.783 1.322-2.002-0.869-0.014-0.157 0.135-0.392 0.336-0.636 3.244 1.090 5.588 4.157 5.588 7.762zM8.875 1.893c-0.196 0.382-0.713 0.537-1.027 0.824-0.684 0.619-0.978 0.533-1.346 1.127-0.371 0.594-1.567 1.449-1.567 1.879s0.604 0.936 0.906 0.838c0.302-0.1 1.099-0.094 1.567 0.070 0.469 0.166 3.914 0.332 2.816 3.244-0.348 0.926-1.873 0.77-2.279 2.303-0.061 0.225-0.272 1.186-0.285 1.5-0.025 0.486 0.344 2.318-0.125 2.318-0.471 0-1.738-1.639-1.738-1.936s-0.328-1.338-0.328-2.23c0-0.891-1.518-0.877-1.518-2.062 0-1.068 0.823-1.6 0.638-2.113-0.181-0.51-1.627-0.527-2.23-0.59 1.053-2.731 3.53-4.758 6.516-5.172zM7.424 17.77c0.492-0.26 0.542-0.596 0.988-0.613 0.51-0.023 0.925-0.199 1.5-0.326 0.51-0.111 1.423-0.629 2.226-0.695 0.678-0.055 2.015 0.035 2.375 0.689-1.295 0.861-2.848 1.363-4.514 1.363-0.899 0-1.765-0.149-2.575-0.418z"></path>
</symbol>
<symbol id="icon-trophy" viewBox="0 0 20 20">
<path d="M11.18 14.356c0-1.451 1.1-2.254 2.894-3.442 2.194-1.456 4.926-3.265 4.926-7.56 0-0.387-0.317-0.699-0.709-0.699h-3.43c-0.484-0.896-1.929-1.855-4.861-1.855-2.934 0-4.377 0.959-4.862 1.855h-3.431c-0.391 0-0.707 0.313-0.707 0.699 0 4.295 2.73 6.104 4.926 7.559 1.794 1.188 2.894 1.991 2.894 3.442v1.311c-1.884 0.209-3.269 0.906-3.269 1.736 0 0.994 1.992 1.799 4.449 1.799s4.449-0.805 4.449-1.799c0-0.83-1.385-1.527-3.269-1.736v-1.31zM13.957 9.3c0.566-1.199 1.016-2.826 1.088-5.246h2.51c-0.24 2.701-1.862 4.064-3.598 5.246zM10 2.026c2.732-0.002 3.799 1.115 3.798 1.529 0 0.418-1.066 1.533-3.798 1.535-2.732-0.001-3.799-1.116-3.799-1.534-0.001-0.414 1.067-1.532 3.799-1.53zM2.445 4.054h2.509c0.073 2.42 0.521 4.047 1.089 5.246-1.736-1.182-3.359-2.545-3.598-5.246z"></path>
</symbol>
<symbol id="icon-spoon-knife" viewBox="0 0 32 32">
<path d="M7 0c-3.314 0-6 3.134-6 7 0 3.31 1.969 6.083 4.616 6.812l-0.993 16.191c-0.067 1.098 0.778 1.996 1.878 1.996h1c1.1 0 1.945-0.898 1.878-1.996l-0.993-16.191c2.646-0.729 4.616-3.502 4.616-6.812 0-3.866-2.686-7-6-7zM27.167 0l-1.667 10h-1.25l-0.833-10h-0.833l-0.833 10h-1.25l-1.667-10h-0.833v13c0 0.552 0.448 1 1 1h2.604l-0.982 16.004c-0.067 1.098 0.778 1.996 1.878 1.996h1c1.1 0 1.945-0.898 1.878-1.996l-0.982-16.004h2.604c0.552 0 1-0.448 1-1v-13h-0.833z"></path>
</symbol>
</defs>
</svg>
